<svg id="Layer_1" data-name="Layer 1" xmlns="http://www.w3.org/2000/svg" viewBox="0 0 895.021 604.581" width="466.3999938964844px" height="321.5375061035156px">
  <path d="M36.421,604.581A35.721,35.721,0,0,1,.8,572.193c-4.619-50.609,6.545-146.943,145.544-188.5,150.29-44.934,108.742-229.521,228.781-229.521S513.746,251.635,545.94,269.853c57.385,32.474,91.569,4.787,133.721,83.711,50.085,93.773,150.525,44.009,202.128,160.726a221.084,221.084,0,0,1,11.877,35.18c7.051,28-14.314,55.111-43.184,55.111Z" fill="#f3f5fd"></path>
  <g>
    <g>
      <path d="M145.173,20.141v15.6H73.622A28.594,28.594,0,0,0,45.029,64.334V575.988a28.593,28.593,0,0,0,28.593,28.593H455.6A28.592,28.592,0,0,0,484.2,575.988V64.334A28.593,28.593,0,0,0,455.6,35.741H384.051v-15.6A20.139,20.139,0,0,0,363.912,0h-198.6A20.139,20.139,0,0,0,145.173,20.141Z" fill="#c1d8ed"></path>
      <rect x="4.031" y="127.023" width="521.163" height="386.275" rx="12.869" transform="translate(-55.549 584.773) rotate(-90)" fill="#fff"></rect>
      <rect x="232.892" y="-34.241" width="63.441" height="187.641" rx="8.751" transform="translate(205.032 324.192) rotate(-90)" fill="#0cbc8b"></rect>
    </g>
    <path d="M153.33,261.216h-42.1a16.177,16.177,0,0,1-16.158-16.159v-42.1A16.177,16.177,0,0,1,111.23,186.8h42.1a16.177,16.177,0,0,1,16.158,16.159v42.1A16.177,16.177,0,0,1,153.33,261.216Zm-42.1-66.229a7.98,7.98,0,0,0-7.97,7.971v42.1a7.98,7.98,0,0,0,7.97,7.971h42.1a7.979,7.979,0,0,0,7.97-7.971v-42.1a7.979,7.979,0,0,0-7.97-7.971Z" fill="#dee8f5"></path>
    <path d="M123.5,240.254A3.677,3.677,0,0,1,120.727,239l-12.5-14.284a3.685,3.685,0,0,1,5.547-4.852L123.9,231.432l27.291-22.814a3.685,3.685,0,0,1,4.726,5.654L125.863,239.4A3.668,3.668,0,0,1,123.5,240.254Z" fill="#262626"></path>
    <g opacity="0.62">
      <rect x="303.873" y="102.582" width="9.815" height="242.852" rx="4.907" transform="translate(84.773 532.788) rotate(-90)" fill="#dee8f5"></rect>
      <rect x="303.873" y="72.499" width="9.815" height="242.852" rx="4.907" transform="translate(114.856 502.705) rotate(-90)" fill="#dee8f5"></rect>
      <rect x="283.404" y="153.133" width="9.815" height="201.913" rx="4.907" transform="translate(34.221 542.401) rotate(-90)" fill="#dee8f5"></rect>
    </g>
    <g>
      <path d="M153.33,355.782h-42.1a16.177,16.177,0,0,1-16.158-16.159v-42.1a16.176,16.176,0,0,1,16.158-16.158h42.1a16.176,16.176,0,0,1,16.158,16.158v42.1A16.177,16.177,0,0,1,153.33,355.782Zm-42.1-66.229a7.98,7.98,0,0,0-7.97,7.971v42.1a7.98,7.98,0,0,0,7.97,7.971h42.1a7.979,7.979,0,0,0,7.97-7.971v-42.1a7.979,7.979,0,0,0-7.97-7.971Z" fill="#dee8f5"></path>
      <path d="M123.5,334.82a3.679,3.679,0,0,1-2.775-1.258l-12.5-14.285a3.684,3.684,0,0,1,5.547-4.851L123.9,326l27.291-22.814a3.684,3.684,0,1,1,4.726,5.653l-30.055,25.124A3.668,3.668,0,0,1,123.5,334.82Z" fill="#262626"></path>
      <g opacity="0.62">
        <rect x="303.873" y="197.148" width="9.815" height="242.852" rx="4.907" transform="translate(-9.793 627.354) rotate(-90)" fill="#dee8f5"></rect>
        <rect x="303.873" y="167.065" width="9.815" height="242.852" rx="4.907" transform="translate(20.289 597.271) rotate(-90)" fill="#dee8f5"></rect>
        <rect x="283.404" y="247.7" width="9.815" height="201.913" rx="4.907" transform="translate(-60.345 636.968) rotate(-90)" fill="#dee8f5"></rect>
      </g>
    </g>
    <g>
      <path d="M153.33,450.348h-42.1a16.177,16.177,0,0,1-16.158-16.159v-42.1a16.177,16.177,0,0,1,16.158-16.158h42.1a16.176,16.176,0,0,1,16.158,16.158v42.1A16.177,16.177,0,0,1,153.33,450.348Zm-42.1-66.229a7.98,7.98,0,0,0-7.97,7.971v42.1a7.979,7.979,0,0,0,7.97,7.971h42.1a7.979,7.979,0,0,0,7.97-7.971v-42.1a7.979,7.979,0,0,0-7.97-7.971Z" fill="#dee8f5"></path>
      <path d="M123.5,429.386a3.676,3.676,0,0,1-2.775-1.258l-12.5-14.284a3.685,3.685,0,0,1,5.547-4.852L123.9,420.565l27.291-22.814a3.684,3.684,0,1,1,4.726,5.653l-30.055,25.125A3.672,3.672,0,0,1,123.5,429.386Z" fill="#262626"></path>
      <g opacity="0.62">
        <rect x="303.873" y="291.714" width="9.815" height="242.852" rx="4.907" transform="translate(-104.359 721.92) rotate(-90)" fill="#dee8f5"></rect>
        <rect x="303.873" y="261.631" width="9.815" height="242.852" rx="4.907" transform="translate(-74.277 691.838) rotate(-90)" fill="#dee8f5"></rect>
        <rect x="283.404" y="342.266" width="9.815" height="201.913" rx="4.907" transform="translate(-154.911 731.534) rotate(-90)" fill="#dee8f5"></rect>
      </g>
    </g>
    <g>
      <path d="M153.33,545.383h-42.1a16.177,16.177,0,0,1-16.158-16.158v-42.1a16.177,16.177,0,0,1,16.158-16.159h42.1a16.177,16.177,0,0,1,16.158,16.159v42.1A16.176,16.176,0,0,1,153.33,545.383Zm-42.1-66.228a7.979,7.979,0,0,0-7.97,7.971v42.1a7.98,7.98,0,0,0,7.97,7.971h42.1a7.979,7.979,0,0,0,7.97-7.971v-42.1a7.979,7.979,0,0,0-7.97-7.971Z" fill="#dee8f5"></path>
      <path d="M123.5,524.422a3.677,3.677,0,0,1-2.775-1.259l-12.5-14.284a3.685,3.685,0,0,1,5.547-4.852L123.9,515.6l27.291-22.814a3.685,3.685,0,1,1,4.726,5.654l-30.055,25.124A3.668,3.668,0,0,1,123.5,524.422Z" fill="#262626"></path>
      <g opacity="0.62">
        <rect x="303.873" y="386.75" width="9.815" height="242.852" rx="4.907" transform="translate(-199.395 816.956) rotate(-90)" fill="#dee8f5"></rect>
        <rect x="303.873" y="356.667" width="9.815" height="242.852" rx="4.907" transform="translate(-169.312 786.873) rotate(-90)" fill="#dee8f5"></rect>
        <rect x="283.404" y="437.301" width="9.815" height="201.913" rx="4.907" transform="translate(-249.947 826.569) rotate(-90)" fill="#dee8f5"></rect>
      </g>
    </g>
    <rect x="258.804" y="17.359" width="11.616" height="210.333" rx="5.808" transform="translate(142.087 387.137) rotate(-90)" fill="#d7e8f4"></rect>
    <rect x="258.804" y="67.643" width="11.616" height="161.881" rx="5.808" transform="translate(116.028 413.196) rotate(-90)" fill="#d7e8f4"></rect>
  </g>
  <g>
    <g>
      <path d="M707.165,401.5s13.5-3.376,25.073-3.376c6.291,0,11.219.295,14.407.563a4.2,4.2,0,0,1,3.833,4.493l-.4,5.552Z" fill="#c1d8ed"></path>
      <polygon points="298.629 568.199 825.778 568.199 804.081 493.946 332.863 493.946 298.629 568.199" fill="#c1d8ed"></polygon>
      <g opacity="0.78">
        <polygon points="298.629 568.199 825.778 568.199 804.081 493.946 332.863 493.946 298.629 568.199" fill="#0f1011"></polygon>
      </g>
      <path d="M870.977,546.684c-1.109,5.471-2.711,9.956-4.855,12.962-14.787,20.578-52.714,19.937-52.714,19.937A108.022,108.022,0,0,0,811.88,557.6c-3.894-23.092-17.054-55.893-60.353-54.365-43.867,1.553-55.326,36.7-58.21,58.752a98.91,98.91,0,0,0-.788,17.595H434.448a111.641,111.641,0,0,0-1.577-14.638c-3.943-23.683-17.769-67.4-65.923-63.163-43.5,3.844-51.556,41.18-52.517,62.695a94.323,94.323,0,0,0,.4,15.106s-24.324-3.548-36.646-8.8a12.493,12.493,0,0,1-7.1-7.936l-.936-3.105L265,542.617a9.075,9.075,0,0,1,.912-7.27l3.943-6.555a51.218,51.218,0,0,1-.616-11.238c.345-7.664,2.44-17.694,9.907-25.038l.049-.049a31.645,31.645,0,0,1,12.519-7.394c35.858-11.73,106.069-24.915,114.448-27.65a248.975,248.975,0,0,0,48.453-20.8c40.042-22.526,102.29-42.349,151.636-44.139,78.844-2.859,149.914,1.947,262.439,55.943,0,0,.172,1.232.443,3.425v.025c.764,6.185,2.317,20.011,3.352,35.931C873.761,507.869,874.18,531.232,870.977,546.684Z" fill="#dee8f5"></path>
      <path d="M301.05,500.673c0,5.939-3.056,14.343-31.816,16.881.345-7.664,2.44-17.694,9.907-25.038l.049-.049C280.472,492.467,301.05,494.709,301.05,500.673Z" fill="#f3f5fd"></path>
      <path d="M872.48,487.809H834.454c-3.13,0-10.375-2.662-7.467-15.674,2.883-13.012,42.141-20.282,42.141-20.282v.025C869.892,458.063,871.445,471.889,872.48,487.809Z" fill="#fd5d76"></path>
      <g opacity="0.76">
        <path d="M728.435,412.275l-3.672,37.237-117.926,4.9,5.545-56.164c2.539-.074,5.1-.123,7.689-.123C671.947,398.129,701.006,403.526,728.435,412.275Z" fill="#0f1011"></path>
      </g>
      <g opacity="0.76">
        <path d="M760.177,448.107l-29.746,1.183,3.475-35.192a188.07,188.07,0,0,1,31.2,14.072C774.421,433.444,770.872,447.688,760.177,448.107Z" fill="#0f1011"></path>
      </g>
      <rect x="556.9" y="474.305" width="27.484" height="4.34" rx="2.17" fill="#c1d8ed"></rect>
      <path d="M314.826,579.583s-24.324-3.548-36.646-8.8a12.493,12.493,0,0,1-7.1-7.936l-.936-3.105c8.551,1.651,22.574,3.623,44.285,4.732A94.323,94.323,0,0,0,314.826,579.583Z" fill="#c1d8ed"></path>
      <path d="M693.317,561.988a98.91,98.91,0,0,0-.788,17.595H434.448a111.641,111.641,0,0,0-1.577-14.638C516.217,564.206,621.923,562.85,693.317,561.988Z" fill="#c1d8ed"></path>
      <path d="M870.977,546.684c-1.109,5.471-2.711,9.956-4.855,12.962-14.787,20.578-52.714,19.937-52.714,19.937A108.022,108.022,0,0,0,811.88,557.6C834.947,555.383,858.8,551.933,870.977,546.684Z" fill="#c1d8ed"></path>
      <polygon points="597.288 569.704 595.293 569.636 602.954 453.489 604.949 453.556 597.288 569.704" fill="#c1d8ed"></polygon>
      <rect x="447.053" y="460.972" width="2" height="109.813" fill="#c1d8ed"></rect>
      <g opacity="0.76">
        <path d="M606.714,398.474l-5.545,56.164-152.181,6.284a2.672,2.672,0,0,1-1.626-4.879C468.777,441.675,527.015,402.54,606.714,398.474Z" fill="#0f1011"></path>
      </g>
      <path d="M444,456.947h12.054a13.26,13.26,0,0,1,13.26,13.26v0a4.1,4.1,0,0,1-4.1,4.1H444a4.1,4.1,0,0,1-4.1-4.1v-9.161a4.1,4.1,0,0,1,4.1-4.1Z" fill="#c1d8ed"></path>
      <g>
        <circle cx="373.098" cy="556.012" r="48.569" fill="#0f1011"></circle>
        <path d="M373.1,524.935a31.077,31.077,0,1,1-31.077,31.077A31.112,31.112,0,0,1,373.1,524.935m0-3.266a34.343,34.343,0,1,0,34.343,34.343A34.343,34.343,0,0,0,373.1,521.669Z" fill="#f3f5fd"></path>
        <circle cx="373.098" cy="556.012" r="8.182" fill="#f3f5fd"></circle>
        <polygon points="382.577 523.302 374.731 556.012 371.465 556.012 363.618 523.302 382.577 523.302" fill="#f3f5fd"></polygon>
        <polygon points="363.618 588.722 371.465 556.012 374.731 556.012 382.577 588.722 363.618 588.722" fill="#f3f5fd"></polygon>
        <g>
          <polygon points="396.289 580.952 372.259 557.413 373.937 554.611 406.03 564.687 396.289 580.952" fill="#f3f5fd"></polygon>
          <polygon points="349.907 531.073 373.937 554.611 372.259 557.413 340.165 547.337 349.907 531.073" fill="#f3f5fd"></polygon>
        </g>
        <g>
          <polygon points="340.165 564.687 372.259 554.611 373.937 557.413 349.907 580.952 340.165 564.687" fill="#f3f5fd"></polygon>
          <polygon points="406.03 547.337 373.937 557.413 372.259 554.611 396.289 531.073 406.03 547.337" fill="#f3f5fd"></polygon>
        </g>
        <circle cx="373.098" cy="556.012" r="4.202" fill="#0f1011"></circle>
      </g>
      <g>
        <circle cx="752.599" cy="556.012" r="48.569" fill="#0f1011"></circle>
        <path d="M752.6,524.935a31.077,31.077,0,1,1-31.077,31.077A31.112,31.112,0,0,1,752.6,524.935m0-3.266a34.343,34.343,0,1,0,34.343,34.343A34.343,34.343,0,0,0,752.6,521.669Z" fill="#f3f5fd"></path>
        <circle cx="752.599" cy="556.012" r="8.182" fill="#f3f5fd"></circle>
        <polygon points="762.078 523.302 754.232 556.012 750.965 556.012 743.119 523.302 762.078 523.302" fill="#f3f5fd"></polygon>
        <polygon points="743.119 588.722 750.965 556.012 754.232 556.012 762.078 588.722 743.119 588.722" fill="#f3f5fd"></polygon>
        <g>
          <polygon points="775.79 580.952 751.759 557.413 753.438 554.611 785.531 564.687 775.79 580.952" fill="#f3f5fd"></polygon>
          <polygon points="729.408 531.073 753.438 554.611 751.759 557.413 719.666 547.337 729.408 531.073" fill="#f3f5fd"></polygon>
        </g>
        <g>
          <polygon points="719.666 564.687 751.759 554.611 753.438 557.413 729.408 580.952 719.666 564.687" fill="#f3f5fd"></polygon>
          <polygon points="785.531 547.337 753.438 557.413 751.759 554.611 775.79 531.073 785.531 547.337" fill="#f3f5fd"></polygon>
        </g>
        <circle cx="752.599" cy="556.012" r="4.202" fill="#0f1011"></circle>
      </g>
    </g>
    <polygon points="606.714 398.474 612.382 398.252 606.837 454.416 601.169 454.638 606.714 398.474" fill="#c1d8ed"></polygon>
    <polygon points="723.06 510.666 720.839 512.312 726.082 449.204 728.151 449.376 723.06 510.666" fill="#c1d8ed"></polygon>
    <polygon points="728.435 412.275 733.906 414.098 730.431 449.29 724.763 449.512 728.435 412.275" fill="#c1d8ed"></polygon>
  </g>
  <g>
    <path d="M583,142.478a133.644,133.644,0,0,1-80.632-26.9,133.641,133.641,0,0,1-80.632,26.9c-2.388,0-4.776-.058-7.135-.19v50.571c.03,45.458,18.122,87.342,57.838,109.448l29.929,16.613,29.929-16.613c39.716-22.106,57.808-63.99,57.838-109.448V142.288C587.773,142.42,585.385,142.478,583,142.478Z" fill="#fff"></path>
    <g>
      <path d="M583,138.083a128.7,128.7,0,0,1-77.99-26.013l-2.642-1.99-2.642,1.99a128.689,128.689,0,0,1-77.99,26.013c-2.4,0-4.72-.061-6.889-.183l-4.641-.26v55.222c.033,50.755,21.938,92.046,60.1,113.288l32.062,17.8,32.066-17.8c38.158-21.239,60.063-62.53,60.1-113.288V137.64l-4.641.26C587.717,138.022,585.4,138.083,583,138.083Zm2.74,54.773c-.031,47.474-20.289,85.968-55.576,105.608l-27.8,15.43-27.792-15.427c-35.291-19.643-55.548-58.137-55.58-105.608V146.847q1.35.025,2.74.026a137.372,137.372,0,0,0,80.632-25.839A137.379,137.379,0,0,0,583,146.873q1.389,0,2.74-.026Z" fill="#0cbc8b"></path>
      <path d="M502.365,327.106l-33.4-18.542c-39.066-21.742-61.489-63.914-61.522-115.7V134.719l7.558.423c2.115.118,4.38.179,6.733.179a125.951,125.951,0,0,0,76.33-25.458l4.3-3.239,4.3,3.239A125.947,125.947,0,0,0,583,135.321c2.354,0,4.619-.061,6.733-.179l7.559-.423v58.14c-.034,51.791-22.454,93.962-61.514,115.7Zm-89.4-186.545v52.3C413,242.584,434.386,283,471.647,303.735l30.718,17.052,30.726-17.055c37.253-20.736,58.641-61.149,58.673-110.875v-52.3l-1.724.1c-2.215.124-4.586.188-7.043.188a131.43,131.43,0,0,1-79.65-26.57l-.982-.738-.982.738a131.424,131.424,0,0,1-79.651,26.57c-2.457,0-4.826-.064-7.043-.188Zm89.4,176.492-29.132-16.171c-36.194-20.146-56.969-59.518-57-108.021V144.036l2.812.049c.884.016,1.783.025,2.69.025a134.8,134.8,0,0,0,79.023-25.321l1.61-1.154,1.61,1.154A134.8,134.8,0,0,0,583,144.11q1.362,0,2.69-.025l2.812-.049v48.822c-.032,48.505-20.806,87.877-56.994,108.02Zm-80.61-167.418v43.224c.031,46.439,19.773,84.052,54.162,103.194l26.448,14.681,26.456-14.685C563.2,276.91,582.944,239.3,582.974,192.854V149.635a140.281,140.281,0,0,1-80.609-25.218A140.277,140.277,0,0,1,421.755,149.635Z" fill="#0cbc8b"></path>
    </g>
    <path d="M484.427,257.927a7.258,7.258,0,0,1-5.148-2.133L451.2,227.712a7.281,7.281,0,0,1,10.3-10.3l22.933,22.934,58.809-61.645a7.282,7.282,0,1,1,10.3,10.3l-63.958,66.791A7.26,7.26,0,0,1,484.427,257.927Z" fill="#262626"></path>
  </g>
  <g>
    <g>
      <path d="M714.714,595.592l17.327-2.061c-.78-6.558-1.66-14.434-1.722-15.726,0,.083,0,.151,0,.2H712.875C712.875,578.532,712.875,580.123,714.714,595.592Z" fill="#E98862"></path>
      <path d="M784.237,597.677l17.448-.057s-.059-18.016-.059-19.612H784.178C784.178,579.608,784.237,597.677,784.237,597.677Z" fill="#E98862"></path>
      <path d="M739.015,590.082l-30.737-.523c1.277-32.373,1.494-69.4,1.838-102.9a194.477,194.477,0,0,1,1.878-24.82c4.946-35.5,8.171-70.793,14.829-106.082l.222.065.65-4.428,63.208-3.9,3.291,41.3s8.233,142.863,11.988,200.307l-30.633,2.588c-5.519-56.32-14.061-138.384-19.314-197.549-6.032,28.805-10.133,58.631-15.382,87.19C739.8,517.069,738.917,554.44,739.015,590.082Z" fill="#262626"></path>
      <path d="M763.026,604.426a3.413,3.413,0,0,1-3.386-3.679h0a3.414,3.414,0,0,1,2.209-2.932l20.308-6.8a2.876,2.876,0,0,1,2.386.266,15.878,15.878,0,0,0,9.528,2.826,14.154,14.154,0,0,0,7.329-2.678,1.285,1.285,0,0,1,2.1,1v9.931a2.225,2.225,0,0,1-2.234,2.225Z" fill="#c1d8ed"></path>
      <path d="M693.456,604.426a3.413,3.413,0,0,1-3.387-3.679h0a3.416,3.416,0,0,1,2.209-2.932l20.309-6.8a2.876,2.876,0,0,1,2.386.266,15.878,15.878,0,0,0,9.528,2.826,14.157,14.157,0,0,0,7.329-2.678,1.284,1.284,0,0,1,2.1,1v9.931a2.225,2.225,0,0,1-2.234,2.225Z" fill="#c1d8ed"></path>
    </g>
    <g>
      <g>
        <path d="M772.46,260.473s-6.592-3.5-5.12-21.446L753.72,236.5s1.53,16.094-5.36,21.2Z" fill="#E98862"></path>
        <g opacity="0.2">
          <path d="M751.15,254.34l11.315-8.656-8.887-.092A24.479,24.479,0,0,1,751.15,254.34Z"></path>
        </g>
        <path d="M775.068,232.066c-.943,5.446-3.915,10.6-8.719,12.363a34.526,34.526,0,0,1-16.5,2.229c-14.91-1.222-11.961-35.125-4.882-41.71s27.854-2.415,30.381,8.6C776.652,219.244,775.965,226.882,775.068,232.066Z" fill="#E98862"></path>
        <g>
          <circle cx="753.739" cy="226.636" r="1.235" fill="#0f1011"></circle>
          <circle cx="743.994" cy="225.836" r="1.235" fill="#0f1011"></circle>
          <path d="M741.853,223.2h.008l3.272-.041a.581.581,0,0,0-.008-1.161h-.007l-3.272.041a.581.581,0,0,0,.007,1.161Z" fill="#0f1011"></path>
          <path d="M756.405,224.4a.58.58,0,0,0,.136-1.144l-3.227-.777a.581.581,0,0,0-.272,1.129l3.227.776A.586.586,0,0,0,756.405,224.4Z" fill="#0f1011"></path>
        </g>
        <path d="M766.541,243.778c.283.906.481,1.3,1.3.816,3.2-1.9,9.556-6.043,12.011-21.554,2.2-13.9-6.374-19.63-13.211-21.675-5.893-1.763-18.164-.517-24.785,3.083-4.912,2.671-1.318,9.834-1.318,9.834,2.459.113,1.92-6.412,7.721-6.412,4.484,0,8.434,6.634,12.632,6.811,3.843.162,4.632,2.5,4.5,4C764.557,227.794,765.54,240.576,766.541,243.778Z" fill="#0f1011"></path>
        <path d="M760.165,229.658a5.237,5.237,0,1,0,10.438.856,5.149,5.149,0,0,0-4.791-5.647C762.08,224.745,760.4,226.776,760.165,229.658Z" fill="#E98862"></path>
        <g opacity="0.2">
          <path d="M748.256,233.487a.426.426,0,0,0,.125-.834l-2.513-.771,1.758-3.913a.427.427,0,0,0-.778-.35l-1.955,4.354a.426.426,0,0,0,.264.582l2.973.913A.423.423,0,0,0,748.256,233.487Z"></path>
        </g>
        <path d="M753.167,236.364a21.519,21.519,0,0,1-7.755-.636s.025,3,3.633,3.3S753.167,236.364,753.167,236.364Z" fill="#fff"></path>
      </g>
      <path d="M741.445,204.91c-4.42,2.96-3.55,8.631-2.721,13.551H744.2l2.294-7.964,2.8,7.964,21.331.738-2.572-10.579Z" fill="#0f1011"></path>
      <circle cx="781.56" cy="236.501" r="11.94" fill="#0f1011"></circle>
    </g>
    <g>
      <path d="M722.429,355.378c3.572,8.21,71.884,11.62,72.822-2.822.6-9.19-6.91-17.774-6.91-35.685s13.44-35.9.012-49.327c-3.9-3.9-6.3-10.733-14.5-10.742-.614,4.783-29.651,4.8-29.872.111-1.109.017-1.97.034-2.507.06-28.286,1.219-13.714,33.485-13.442,57.133C728.365,341.779,718.746,346.921,722.429,355.378Z" fill="#fff"></path>
      <path d="M743.909,256.763c.222,4.688,2.771,11.585,10.64,12.105,10.485.691,18.618-7.434,19.232-12.216h-.025C763.432,256.652,749.928,256.669,743.909,256.763Z" fill="#E98862"></path>
      <g>
        <path d="M679.482,261.449s-.127-10.239-7.446-9.706c-4.617.336-26.557-.682-26.883,1.315-.808,4.945,19.26,6.154,21.081,10.762Z" fill="#E98862"></path>
        <path d="M674.627,252.071s-10.186-3.325-12.69-2.728c-2.216.527,2.4,4.135,2.4,4.135Z" fill="#E98862"></path>
      </g>
      <path d="M680.343,255.468l18.248,34.074,28.1-27.411a20.782,20.782,0,0,1,12.7-5.345s8.54-.042,8.52-.088c.669,1.543-.307,32.106-1.16,48.883-.931,18.161.027,40.842-.84,53.878a6.2,6.2,0,0,1-7.122,5.714c-9.183-1.405-16.341-3.8-17.386-6.2-3.682-8.457,4.816-17.273,4.484-44.946,0-.16-.007-.322-.01-.483l-.059.332c-.087-7.447-1.35-15.768-2.231-23.71l-21.017,20.5a8.985,8.985,0,0,1-6.636,2.541,9.156,9.156,0,0,1-7.618-4.932l-23.758-44.359Z" fill="#367CFF"></path>
      <path d="M789.624,317.431c0,17.911,8.1,25.933,7.5,35.123-.368,5.74-3.3,13-25.426,14.557a7.005,7.005,0,0,1-7.446-6.134c-4.241-35.257,3.476-82.21,5.644-98.046,1.277-6.757,1.578-6.346,4.783-6.349,8.2.009,14.1,2.742,17.994,6.638C806.1,276.647,789.624,299.528,789.624,317.431Z" fill="#367CFF"></path>
      <path d="M779.592,345.207l.57,4.227-4.643.627a2.778,2.778,0,0,0-2.382,3.124l3.342,24.777a2.78,2.78,0,0,0,3.125,2.382l4.643-.627.57,4.227a2.779,2.779,0,0,0,3.125,2.382l52.937-7.141a2.778,2.778,0,0,0,2.382-3.124l-5.226-38.737a2.778,2.778,0,0,0-3.124-2.382l-52.937,7.141A2.778,2.778,0,0,0,779.592,345.207Z" fill="#c1d8ed"></path>
      <path d="M817.384,368.538l-11.873-1.405-.233,4.661c0,2.542-1.49,9.677.667,10.284.821.231,1.882-.87,2.442-2.7a7.614,7.614,0,0,1,.95,3.908c-.261,3.067,10.6,1.745,10.6-1.273A42.86,42.86,0,0,0,817.384,368.538Z" fill="#E98862"></path>
      <path d="M801.547,374.724,819.934,372l-7.784-52.469a9.255,9.255,0,0,0-.324-1.412L796.237,268.3l-17.74,5.551,15.373,49.126Z" fill="#367CFF"></path>
      <g>
        <path d="M777.236,276.832l-2.114-6.931,4.074-2.668-2.312-10.593c-3.033-.159-5.327-.148-6.206-.113-2.011,6.726-5.193,36.528-5.977,47.807Z" fill="#367CFF"></path>
        <g opacity="0.24">
          <path d="M777.236,276.832l-2.114-6.931,4.074-2.668-2.312-10.593c-3.033-.159-5.327-.148-6.206-.113-2.011,6.726-5.193,36.528-5.977,47.807Z" fill="#fff"></path>
        </g>
        <path d="M741.941,269.9l-4.006,6.079,8.907,27.948s2.045-39.376,1.221-47.271c0,0-2.142.047-3.539.028-1.751-.025-3.323.022-3.323.022l-3.334,10.526Z" fill="#367CFF"></path>
        <g opacity="0.24">
          <path d="M741.941,269.9l-4.006,6.079,8.907,27.948s2.045-39.376,1.221-47.271c0,0-2.142.047-3.539.028-1.751-.025-3.323.022-3.323.022l-3.334,10.526Z" fill="#fff"></path>
        </g>
      </g>
    </g>
  </g>
</svg>