<svg version="1.1" id="Layer_1" xmlns="http://www.w3.org/2000/svg" xmlns:xlink="http://www.w3.org/1999/xlink" x="0px" y="0px"
	 width="100%" viewBox="0 0 250 250" enable-background="new 0 0 250 250" xml:space="preserve">
<path fill="#000000" opacity="1.000000" stroke="none" 
	d="
M140.000000,251.000000 
	C94.500000,251.000000 49.499905,250.963089 4.500231,251.083450 
	C1.517115,251.091431 0.914226,250.482208 0.918007,247.499908 
	C1.020705,166.500046 1.020703,85.500000 0.918015,4.500127 
	C0.914235,1.517936 1.517760,0.914224 4.500081,0.918005 
	C85.499954,1.020706 166.500000,1.020701 247.499863,0.918018 
	C250.482025,0.914237 251.085800,1.517715 251.082016,4.500066 
	C250.979309,85.499939 250.979294,166.499985 251.081970,247.499847 
	C251.085754,250.481979 250.483643,251.095200 247.499741,251.084290 
	C211.833527,250.953751 176.166687,251.000000 140.000000,251.000000 
z"/>
<path fill="#FEFEFD" opacity="1.000000" stroke="none" 
	d="
M158.185974,195.709167 
	C153.791855,198.914764 148.964691,200.329651 143.473206,201.050446 
	C143.066101,201.093719 143.046753,200.987656 143.076462,201.020447 
	C142.035141,202.880341 140.277573,201.631012 138.488739,202.018082 
	C137.919586,202.154541 137.741974,202.269226 137.253174,202.327194 
	C135.651703,201.337875 134.267212,201.242859 132.469391,201.865936 
	C131.892380,201.941254 131.654739,201.956299 131.050400,201.979309 
	C127.043694,201.992828 123.403641,202.015045 119.376968,201.954742 
	C118.221451,201.889755 117.486786,201.686295 116.400482,201.351257 
	C113.142204,200.303421 113.551842,198.778229 115.554146,196.772842 
	C115.971359,196.371994 116.140884,196.218002 116.580582,195.859894 
	C117.758881,195.076614 118.790359,194.717392 119.904572,193.887207 
	C120.757706,193.188782 121.366676,192.676422 122.071289,191.844910 
	C122.478294,191.303879 122.698067,190.986313 123.057892,190.412643 
	C123.308540,189.996384 123.411690,189.831070 123.677834,189.423004 
	C124.294128,188.538773 124.689995,187.867020 125.023384,186.820862 
	C125.187157,186.333694 125.258217,186.139084 125.455498,185.657745 
	C126.128181,184.246094 126.892448,183.228745 127.269516,181.697174 
	C127.321762,181.181808 127.347389,180.976303 127.451286,180.471252 
	C127.380554,179.743988 128.719208,179.517334 127.520630,178.702576 
	C127.291100,178.224731 127.232758,178.015198 127.146896,177.475021 
	C127.828735,171.778534 124.985291,167.551773 122.440445,162.894348 
	C122.105537,162.446808 121.967888,162.270996 121.623154,161.831665 
	C121.278030,161.391617 121.139999,161.215073 120.800926,160.766632 
	C120.474533,160.305695 120.349182,160.116669 120.050873,159.633316 
	C118.792755,157.035522 117.186836,155.108429 115.236870,153.010529 
	C114.848816,152.589584 114.704155,152.412186 114.380371,151.943817 
	C112.823669,148.543427 110.312706,146.246948 108.158836,143.284637 
	C107.800247,142.858688 107.662384,142.684158 107.333145,142.237930 
	C106.249229,140.438110 105.121170,139.125305 103.374054,137.927094 
	C102.949188,137.557022 102.789978,137.395386 102.438339,136.951675 
	C100.932587,133.398453 98.004997,131.414536 95.706818,128.510300 
	C95.333305,128.114456 95.183762,127.958420 94.831985,127.553352 
	C94.273659,126.785606 93.968025,126.234322 93.413780,125.474388 
	C92.962486,124.901283 92.713921,124.565498 92.303665,123.957001 
	C91.610413,122.785439 91.120445,121.857887 90.172226,120.864052 
	C89.834373,120.465843 89.709114,120.299019 89.439499,119.856644 
	C89.141975,119.201332 88.998955,118.817795 88.755600,118.148361 
	C88.563858,117.680145 88.484741,117.493256 88.281174,117.027130 
	C87.898109,116.181824 87.646355,115.612564 87.228287,114.759468 
	C87.002182,114.257362 86.916977,114.050926 86.720016,113.523056 
	C85.787254,110.733971 84.838554,108.297661 84.731422,105.285339 
	C84.683556,104.185509 84.707092,103.449615 84.719955,102.339470 
	C85.724724,95.341934 88.578377,89.579842 93.079834,84.194595 
	C98.605759,79.090652 104.462250,75.005722 110.250168,70.818382 
	C112.085358,69.490700 114.106331,68.965431 116.432770,68.107132 
	C116.929329,67.811714 117.128883,67.693672 117.634674,67.408218 
	C118.358078,67.026314 118.779694,66.820953 119.529472,66.472267 
	C120.076271,66.229752 120.299263,66.139496 120.865791,65.932205 
	C130.203690,62.711655 139.162247,59.496357 148.715729,57.042145 
	C150.024734,56.775055 151.100616,56.936581 152.103638,55.969559 
	C152.375595,55.575825 152.481461,55.415108 152.810776,55.071617 
	C155.669693,54.625854 157.492783,56.658131 159.969604,57.620438 
	C159.652679,60.644630 157.260132,61.852818 155.495331,63.956600 
	C155.169220,64.385353 155.034821,64.552177 154.678802,64.948120 
	C154.130920,65.441360 153.789841,65.684700 153.177094,66.079491 
	C152.751923,66.372040 152.582870,66.491287 152.161011,66.795868 
	C151.735382,67.103050 151.562531,67.224907 151.114365,67.516251 
	C150.643219,67.785339 150.447357,67.884949 149.945496,68.118187 
	C141.470703,72.353188 137.124557,79.003548 137.771271,86.892822 
	C138.070038,88.168633 138.081940,89.111206 137.923126,90.404449 
	C135.673447,97.288712 140.643021,101.132935 143.782288,105.974564 
	C144.559586,106.628006 144.983505,107.147125 145.538422,107.977699 
	C146.039490,108.789070 146.332962,109.351158 147.086395,109.946762 
	C147.684265,110.385841 148.006439,110.664101 148.521729,111.211876 
	C148.986237,111.819321 149.215012,112.193588 149.568542,112.882095 
	C149.793045,113.394051 149.872238,113.604408 150.054199,114.137177 
	C155.579010,122.057999 161.574814,129.127274 169.302673,135.049561 
	C169.799194,135.355438 169.986572,135.496002 170.395584,135.909119 
	C172.450531,141.132629 176.271286,144.408157 180.522217,147.720459 
	C181.206421,148.080826 181.573029,148.320770 182.153488,148.808136 
	C182.526062,149.181763 182.664047,149.339264 183.179169,149.982315 
	C183.677124,150.628815 183.797913,150.789734 184.090225,151.195389 
	C184.364532,151.608353 184.467346,151.776611 184.709320,152.201797 
	C185.186874,153.165329 185.660568,153.755615 186.573349,154.357788 
	C187.128876,154.815109 187.391678,155.133789 187.757675,155.772003 
	C188.252411,158.130630 189.754913,159.389328 191.339600,160.995667 
	C191.621536,163.691666 190.702805,165.520966 188.829376,167.092651 
	C188.251083,167.577805 189.505386,167.209320 189.919952,167.815308 
	C190.033295,169.232513 189.784042,170.327209 188.122467,170.339966 
	C187.637070,170.433975 186.762024,169.830826 186.881332,170.710281 
	C186.902954,170.869690 187.206665,170.779526 187.699371,170.319321 
	C188.916885,172.542648 186.756516,173.431610 185.373627,174.995941 
	C179.962006,176.836334 177.011566,180.826279 174.511475,185.425873 
	C172.804962,188.075409 170.378479,189.691162 167.359543,191.085999 
	C166.584869,190.817368 166.714005,190.278809 166.517700,189.858765 
	C166.357269,190.298492 166.508636,190.767960 166.472260,191.508942 
	C166.056992,192.432999 165.597946,193.123230 164.338196,193.069214 
	C161.169525,191.447281 159.936234,193.979385 158.185974,195.709167 
z"/>
<path fill="#F1F2F5" opacity="1.000000" stroke="none" 
	d="
M152.879761,54.538788 
	C153.034225,54.888847 153.042419,55.338516 153.027039,55.562862 
	C150.777985,57.103394 148.761047,55.632740 146.345184,55.199806 
	C145.831924,55.035999 145.629669,54.965305 145.131180,54.778984 
	C143.871750,54.238773 142.856216,54.018116 141.500977,53.834217 
	C140.973297,53.732513 140.761948,53.685081 140.233307,53.557720 
	C138.152924,53.065712 136.327835,53.253014 134.208862,52.862415 
	C133.155563,52.659451 132.449173,52.519955 131.356781,52.415062 
	C127.858223,52.330486 124.735939,52.348045 121.227928,52.400513 
	C119.828148,52.517681 118.825958,52.689358 117.460526,52.971024 
	C115.874100,53.255424 114.638184,53.254105 113.057434,53.407024 
	C110.422066,53.908371 108.158531,54.442699 105.572044,55.094353 
	C105.023308,55.236263 104.804893,55.293011 104.262970,55.439636 
	C103.726189,55.592125 103.512909,55.654739 102.981590,55.811321 
	C101.395607,56.231228 100.152779,56.626484 98.693832,57.381035 
	C98.197243,57.607388 97.995110,57.690510 97.483810,57.881416 
	C96.551819,58.191925 95.925941,58.386185 95.028793,58.807163 
	C91.749893,60.154236 89.209061,62.075390 86.322105,64.051468 
	C85.675240,64.413322 85.302475,64.599716 84.663300,64.909805 
	C84.235771,65.139496 84.068344,65.232834 83.660248,65.474869 
	C83.265816,65.729446 83.112030,65.835327 82.730972,66.103317 
	C82.349747,66.369812 82.195801,66.474197 81.805817,66.726212 
	C81.092125,67.165756 80.617569,67.462166 79.972404,68.022614 
	C79.608170,68.355362 79.459656,68.489655 79.073761,68.820755 
	C78.664246,69.138824 78.492111,69.260086 78.034363,69.532021 
	C77.541443,69.754150 77.334152,69.825607 76.799347,69.958359 
	C75.788330,70.077644 75.123375,69.997513 74.209564,69.545349 
	C91.750381,53.768829 112.622414,47.803219 135.906693,50.082458 
	C141.613876,50.641121 147.285370,52.134964 152.879761,54.538788 
z"/>
<path fill="#EDE9DB" opacity="1.000000" stroke="none" 
	d="
M174.835358,67.763161 
	C180.396896,69.894272 182.974243,74.676537 186.140381,78.682938 
	C194.342773,89.062225 199.864532,100.675835 200.719650,114.617340 
	C198.892548,114.478294 198.969604,112.890419 198.290833,111.338882 
	C196.730591,108.624596 196.085770,106.012054 195.953186,102.914536 
	C195.691650,101.295105 195.313950,100.060242 194.552475,98.611496 
	C194.326752,98.119942 194.243591,97.920250 194.051804,97.415802 
	C193.506638,95.430939 192.703110,93.941177 191.402802,92.346451 
	C188.879807,89.917175 187.835312,86.924187 186.006165,84.050499 
	C185.110962,82.742386 184.933685,81.431358 183.914902,80.210342 
	C183.547684,79.841904 183.392136,79.701355 182.981674,79.364983 
	C182.545944,79.043907 182.365158,78.918663 181.905533,78.604370 
	C178.989548,76.488838 176.931015,73.915649 174.347855,71.921791 
	C173.175751,71.017075 172.115784,69.952377 172.864868,67.939987 
	C173.564835,67.493111 174.039062,67.471481 174.835358,67.763161 
z"/>
<path fill="#F7F5E9" opacity="1.000000" stroke="none" 
	d="
M175.013962,67.629562 
	C174.630066,67.975311 174.110504,68.001175 173.201630,68.052383 
	C170.819397,68.416534 169.220428,67.272568 167.961777,66.173218 
	C164.254593,62.935276 160.534531,62.598549 156.442947,65.246231 
	C155.892944,65.602150 155.194839,65.567848 154.266251,65.191132 
	C154.474319,61.627468 157.907440,60.690338 159.812378,58.099350 
	C165.842636,59.812885 170.548187,63.265343 175.013962,67.629562 
z"/>
<path fill="#F1F2F5" opacity="1.000000" stroke="none" 
	d="
M54.773315,99.178871 
	C56.513424,91.411659 60.998543,85.458702 65.162140,79.361954 
	C67.099327,76.525330 69.227592,73.801399 72.137123,71.254593 
	C72.887154,71.559738 73.057625,72.309433 73.045265,73.486832 
	C69.730331,79.171150 65.246979,83.632797 62.108101,89.461639 
	C61.471992,90.538399 60.910778,91.246819 60.263359,92.288040 
	C59.994312,92.756027 59.886036,92.941666 59.616371,93.403702 
	C58.902611,94.583527 58.438457,95.526558 58.074131,96.869095 
	C57.909794,97.392059 57.835808,97.600876 57.620541,98.115204 
	C57.004421,99.218704 56.476948,99.960854 55.186531,100.194092 
	C54.759037,99.912674 54.674999,99.695084 54.773315,99.178871 
z"/>
<path fill="#E9E9E9" opacity="1.000000" stroke="none" 
	d="
M174.890625,185.563156 
	C174.223251,185.298248 173.366348,184.850372 173.384537,184.441437 
	C173.511719,181.583832 181.556976,174.639160 184.856812,174.857880 
	C182.693710,179.488220 179.399567,182.927811 174.890625,185.563156 
z"/>
<path fill="#E9E9E9" opacity="1.000000" stroke="none" 
	d="
M63.148006,169.240875 
	C56.669518,161.777267 53.379379,153.247940 52.246429,143.354523 
	C54.655579,143.870956 54.501869,146.202637 55.508270,148.269257 
	C55.702740,148.789246 55.776337,148.998138 55.949112,149.522522 
	C56.340019,150.888779 56.635586,151.938354 57.132652,153.267670 
	C57.965530,155.652267 59.033569,157.565460 60.205391,159.796158 
	C60.477146,160.280396 60.583363,160.476196 60.841476,160.970673 
	C61.814983,163.831558 64.202248,165.674377 64.202682,168.865417 
	C63.854073,169.264938 63.642097,169.350204 63.148006,169.240875 
z"/>
<path fill="#F6F5F8" opacity="1.000000" stroke="none" 
	d="
M51.272133,138.195374 
	C49.024174,130.170914 49.879272,122.196335 50.403160,114.296753 
	C50.672173,110.240417 52.234024,106.269821 53.858696,102.371994 
	C55.489754,104.316589 54.644630,106.111832 54.354805,108.316490 
	C53.568066,112.646477 52.773365,116.571815 52.400238,120.974197 
	C52.369770,124.427315 52.368721,127.471558 52.384808,130.929047 
	C52.231297,133.263870 52.712582,135.159439 52.473122,137.463776 
	C52.101398,138.013611 51.880039,138.177902 51.272133,138.195374 
z"/>
<path fill="#EFEDE5" opacity="1.000000" stroke="none" 
	d="
M190.471970,167.915161 
	C189.436768,167.690445 187.198303,168.923660 188.555405,166.448730 
	C189.391495,164.923981 190.089127,163.323303 190.887634,161.412231 
	C190.626602,160.722900 190.467773,160.319870 190.513458,159.544189 
	C190.738388,159.052734 190.880203,158.883759 191.315521,158.572189 
	C192.684937,158.126831 193.451202,157.508316 193.786942,156.056732 
	C194.080139,154.884918 194.410294,154.073639 195.018250,153.019897 
	C195.553833,152.174698 195.958801,151.646194 196.678467,150.953156 
	C197.166214,150.728195 197.387619,150.705215 197.887344,150.866684 
	C197.202835,157.286911 193.852188,162.472519 190.471970,167.915161 
z"/>
<path fill="#F6F5F8" opacity="1.000000" stroke="none" 
	d="
M136.413025,201.649597 
	C136.909897,201.896545 137.147293,201.925812 137.740936,201.997467 
	C137.148849,203.861725 135.457672,202.960846 134.147949,202.960846 
	C125.849930,202.960831 117.514557,203.595367 109.374222,201.151764 
	C110.974785,199.655441 112.519928,199.737167 114.463486,200.477722 
	C115.850464,200.961136 116.934769,201.037567 118.341812,201.462509 
	C122.888206,201.486984 127.030701,201.583313 131.531860,201.251495 
	C131.891434,201.045425 132.363937,201.003906 132.600952,200.995697 
	C133.952103,201.068878 135.103302,200.873795 136.413025,201.649597 
z"/>
<path fill="#343455" opacity="1.000000" stroke="none" 
	d="
M83.211533,189.188934 
	C82.852287,188.992371 82.647926,188.974457 82.138664,188.914932 
	C81.476860,187.979507 80.630669,187.245819 81.189667,185.854431 
	C86.065300,183.969482 88.017731,188.311737 91.375351,190.279236 
	C91.717834,191.096710 91.754959,191.593491 91.533661,192.443375 
	C90.501999,193.737045 89.607208,193.041519 88.402908,192.627060 
	C87.115845,191.405563 85.649712,191.201141 84.230110,190.228729 
	C83.933372,190.055664 84.000359,190.016602 83.985680,190.052490 
	C83.816833,189.808380 83.615311,189.568115 83.211533,189.188934 
z"/>
<path fill="#F1F2F5" opacity="1.000000" stroke="none" 
	d="
M87.795212,191.757874 
	C88.878311,192.258652 89.625641,192.572510 90.684563,192.877884 
	C95.574585,193.451828 99.522072,195.461426 103.159134,198.619843 
	C102.972626,199.149536 102.758957,199.294037 102.212112,199.241852 
	C96.320267,198.441803 91.766571,195.498962 87.001678,192.383179 
	C87.059158,191.890778 87.259308,191.730865 87.795212,191.757874 
z"/>
<path fill="#1C1D3A" opacity="1.000000" stroke="none" 
	d="
M71.657356,75.182190 
	C71.938080,73.875381 72.571800,72.852150 72.785568,71.376808 
	C72.794685,70.446609 73.223740,69.968521 73.795670,69.414413 
	C75.010201,70.789528 75.800400,69.594994 77.196564,68.933975 
	C78.419090,73.029358 76.996529,74.681473 71.657356,75.182190 
z"/>
<path fill="#FEFEFD" opacity="1.000000" stroke="none" 
	d="
M201.053665,114.939987 
	C203.215073,119.253853 201.572174,123.846169 201.938019,128.302490 
	C202.192581,131.403152 201.877335,134.550598 201.420654,137.875427 
	C200.831619,137.885941 200.638565,137.698196 200.268448,137.145935 
	C199.759262,135.734955 199.749435,134.648422 199.672791,133.157349 
	C199.646072,132.470657 199.638718,132.194412 199.625992,131.500854 
	C199.634277,127.966568 199.638840,124.849586 199.605591,121.295883 
	C199.677734,119.089973 199.458115,117.271309 200.765442,115.320335 
	C201.060776,114.982208 201.046860,114.954086 201.053665,114.939987 
z"/>
<path fill="#F6F5F8" opacity="1.000000" stroke="none" 
	d="
M158.466705,196.028717 
	C156.064011,194.277649 157.374420,192.915070 159.022430,192.665680 
	C160.603882,192.426361 162.321365,189.849640 164.029205,192.806549 
	C162.619888,194.665466 160.586594,195.096497 158.466705,196.028717 
z"/>
<path fill="#EDE9DB" opacity="1.000000" stroke="none" 
	d="
M200.622406,136.768951 
	C200.957870,137.080215 200.981979,137.278107 201.015366,137.774841 
	C201.624115,142.507858 199.697174,146.509094 198.513535,150.874222 
	C198.165665,151.051132 197.700272,151.033875 197.467728,151.021698 
	C196.385574,150.338821 196.722916,149.422531 196.758606,148.252228 
	C196.906204,146.452835 197.382401,145.028214 197.459152,143.223770 
	C197.563934,142.487335 197.699356,142.085938 198.026031,141.417328 
	C198.880386,140.031815 198.840073,138.682480 199.542816,137.242386 
	C199.921310,136.863739 200.116165,136.759674 200.622406,136.768951 
z"/>
<path fill="#E9E9E9" opacity="1.000000" stroke="none" 
	d="
M75.225021,182.506653 
	C72.296036,182.795547 71.085976,180.865417 69.956566,178.487045 
	C69.823166,177.942413 69.694199,177.747162 69.702545,177.228470 
	C70.850594,176.449570 71.640038,176.983032 72.713707,177.697540 
	C73.164062,178.064209 73.337021,178.219315 73.752838,178.624054 
	C74.751831,179.765930 75.469887,180.677490 75.225021,182.506653 
z"/>
<path fill="#F6F5F8" opacity="1.000000" stroke="none" 
	d="
M102.045441,199.396515 
	C102.122711,199.013306 102.366486,198.981445 102.974190,198.889923 
	C105.686844,197.605453 107.544823,198.362640 109.043839,200.665710 
	C108.967644,201.069534 108.936951,201.047043 108.925125,201.061951 
	C106.510536,201.485962 104.488129,199.977112 102.045441,199.396515 
z"/>
<path fill="#F1F2F5" opacity="1.000000" stroke="none" 
	d="
M80.856773,186.024750 
	C81.145576,186.958054 81.512268,187.619217 81.856361,188.576859 
	C80.729713,188.258118 79.625656,187.642914 78.326981,186.761475 
	C78.176750,186.298370 78.221123,186.101486 78.507629,185.725739 
	C79.121017,185.402466 79.504852,185.321365 80.185539,185.375671 
	C80.622894,185.539932 80.778778,185.646286 80.856773,186.024750 
z"/>
<path fill="#F1F2F5" opacity="1.000000" stroke="none" 
	d="
M70.113861,176.618500 
	C69.998665,177.170364 69.987679,177.363724 69.964417,177.847382 
	C68.812683,177.103668 67.673225,176.069702 66.334885,174.768951 
	C66.197609,174.257294 66.259209,174.012421 66.682083,173.654541 
	C68.756920,173.682388 69.778008,174.631943 70.113861,176.618500 
z"/>
<path fill="#F1F2F5" opacity="1.000000" stroke="none" 
	d="
M66.416023,174.335953 
	C65.460609,173.559738 64.785210,172.617340 64.293053,171.142853 
	C66.381569,170.342697 67.304253,171.274933 67.366455,173.442169 
	C67.050949,173.919678 66.873489,174.044708 66.416023,174.335953 
z"/>
<path fill="#E9E9E9" opacity="1.000000" stroke="none" 
	d="
M87.936981,191.629013 
	C87.919060,191.963425 87.707146,191.982040 87.177124,192.025681 
	C85.572052,192.338608 84.868546,191.449020 84.018097,190.370331 
	C85.725685,188.892181 86.390320,191.144836 87.936981,191.629013 
z"/>
<path fill="#E9E9E9" opacity="1.000000" stroke="none" 
	d="
M50.923992,138.441711 
	C50.885582,138.048553 51.329662,137.988297 51.553734,137.987610 
	C52.223743,138.218475 52.546425,138.567932 52.870975,139.368683 
	C53.103039,140.449722 53.086346,141.177521 52.804703,142.241776 
	C52.669575,142.580490 52.286667,142.825577 52.095726,142.948929 
	C50.045769,142.003387 51.351494,140.230667 50.923992,138.441711 
z"/>
<path fill="#EFEDE5" opacity="1.000000" stroke="none" 
	d="
M187.928528,170.143158 
	C187.354462,170.605042 186.753067,171.065598 186.124512,171.485474 
	C186.103775,171.499329 185.649185,171.085968 185.666290,170.895996 
	C185.743134,170.041763 186.496231,170.150894 187.478745,170.047943 
	C187.884430,170.071762 187.896973,170.135498 187.928528,170.143158 
z"/>
<path fill="#F1F2F5" opacity="1.000000" stroke="none" 
	d="
M78.401596,186.336548 
	C77.436447,185.859039 76.740524,185.222794 75.949112,184.317429 
	C76.032143,183.895401 76.210640,183.742508 76.736015,183.521484 
	C78.130333,183.559219 78.802795,184.144012 79.179596,185.453247 
	C79.006317,185.930710 78.838562,186.054276 78.401596,186.336548 
z"/>
<path fill="#F6F5F8" opacity="1.000000" stroke="none" 
	d="
M54.629051,99.019165 
	C54.981228,99.115356 55.006786,99.350449 55.085381,99.936279 
	C55.504143,101.038589 55.365341,101.663139 54.318787,102.064301 
	C53.967567,101.981033 53.958363,101.950241 53.944748,101.941681 
	C54.054905,101.008110 54.178669,100.083099 54.629051,99.019165 
z"/>
<path fill="#F6F5F8" opacity="1.000000" stroke="none" 
	d="
M166.734375,191.691833 
	C166.438629,190.897964 166.321381,189.989594 166.204132,189.081223 
	C167.155121,189.161011 166.896011,189.925079 166.994904,190.822845 
	C166.991867,191.160675 166.912842,191.577332 166.734375,191.691833 
z"/>
<path fill="#E9E9E9" opacity="1.000000" stroke="none" 
	d="
M77.138611,183.644577 
	C76.887268,183.980652 76.680595,183.994965 76.163773,184.028778 
	C75.481140,184.062546 75.204247,183.906815 74.966034,183.338440 
	C75.025764,182.973480 75.142403,182.851166 75.434128,182.545517 
	C76.300896,182.408722 76.841705,182.702530 77.138611,183.644577 
z"/>
<path fill="#F1F2F5" opacity="1.000000" stroke="none" 
	d="
M62.917553,169.359985 
	C62.865891,169.046280 63.358017,169.040146 63.603729,169.026672 
	C64.195930,169.163773 64.441322,169.416473 64.656754,170.023834 
	C64.577667,170.425735 64.442230,170.560196 64.103539,170.896271 
	C63.159012,170.904877 62.959507,170.357681 62.917553,169.359985 
z"/>
<path fill="#E9E9E9" opacity="1.000000" stroke="none" 
	d="
M83.105423,189.259949 
	C83.464119,189.169052 83.871590,189.327820 84.125031,189.787491 
	C83.698730,189.895462 83.426460,189.702530 83.105423,189.259949 
z"/>
<path fill="#2B2C67" opacity="1.000000" stroke="none" 
	d="
M71.033875,75.045578 
	C74.862717,74.790794 76.518494,72.356339 77.796829,69.178375 
	C77.733543,68.819046 77.786682,68.854164 77.763321,68.875832 
	C78.120033,68.816307 78.432640,68.624924 78.815552,68.075066 
	C78.953293,67.826759 78.949013,67.939377 78.894470,67.925224 
	C79.803993,67.444092 80.842590,67.102509 81.668747,65.961288 
	C81.744957,65.647346 81.836700,65.798203 81.749237,65.810211 
	C82.077522,65.813400 82.412109,65.639732 82.800949,65.052383 
	C82.925690,64.781914 82.927383,64.909462 82.865860,64.892632 
	C83.375435,64.654533 83.975479,64.528320 84.765808,64.118874 
	C87.610039,61.220375 90.768867,59.366795 94.597961,57.969475 
	C95.561172,57.969704 96.110779,57.826180 96.802170,57.245007 
	C97.016808,57.046612 97.156425,56.848793 97.272461,56.883327 
	C99.115082,56.504887 100.872101,56.193962 102.709404,55.090698 
	C102.934303,54.783295 102.938721,54.928925 102.866898,54.916763 
	C102.996033,54.802002 103.196991,54.699406 103.688385,54.422997 
	C106.412903,53.557983 108.847008,52.866783 111.655273,52.195419 
	C113.669052,52.647266 115.304405,52.754875 117.181961,51.894882 
	C118.117653,51.432869 118.801781,51.226864 119.757690,51.099117 
	C123.750931,51.880615 127.503838,51.379604 131.615875,51.323761 
	C132.515610,51.153950 133.040771,51.130512 133.788208,51.255219 
	C135.757538,53.750702 138.277252,51.903477 140.724686,52.751671 
	C141.115143,52.935055 140.967072,52.857201 141.007294,52.783863 
	C141.877502,54.141148 143.323425,53.221039 144.758804,53.778133 
	C145.087799,53.959496 145.015854,53.983337 145.026260,53.946899 
	C145.492477,54.486076 146.038132,54.991390 146.492096,55.995895 
	C146.668945,58.175064 145.359879,58.094788 144.055588,58.548233 
	C136.222916,61.271305 127.885269,62.523956 120.287743,66.845970 
	C120.067162,67.121452 120.027794,67.036560 120.071114,67.054237 
	C119.592834,67.385643 118.990349,67.469315 118.230545,67.890274 
	C118.033806,68.115463 118.028702,68.035339 118.066040,68.050095 
	C112.811981,68.113907 109.189888,71.422066 105.326035,74.408112 
	C103.407066,75.891121 101.335869,77.357880 98.826202,77.833076 
	C96.345207,78.302841 95.314621,80.047241 94.660034,82.599380 
	C89.205719,87.938683 85.718544,93.845848 85.651138,101.669373 
	C85.831261,102.747437 85.878967,103.508430 85.864609,104.646698 
	C84.890335,108.096275 85.332085,110.922981 87.553726,113.735855 
	C87.773438,114.005028 88.047340,114.406715 88.048340,114.649811 
	C88.422066,115.385834 88.465721,115.996620 88.859375,116.765732 
	C89.072853,116.972939 89.001114,116.974731 89.025116,116.948059 
	C89.404182,117.422966 89.471413,118.028671 89.871719,118.796265 
	C90.089729,118.999786 90.245293,119.117683 90.242218,119.215225 
	C90.642532,120.935005 91.596123,122.247986 92.893723,123.730286 
	C93.521111,124.020462 93.764854,124.225296 93.950592,124.789322 
	C94.474365,125.453369 94.455856,126.123184 95.071655,126.690506 
	C95.365387,126.756279 95.216637,126.798309 95.266830,126.739548 
	C96.928955,130.618423 100.192543,133.275894 103.171280,136.274719 
	C103.490883,136.147598 103.715652,136.316589 103.782478,136.440292 
	C103.977173,139.055206 105.896019,140.204163 107.836990,141.736435 
	C108.100113,141.939133 108.028481,141.991959 108.041977,141.949554 
	C110.068153,145.271118 109.994263,150.112045 115.162895,151.391479 
	C115.495781,151.305283 115.564049,151.437592 115.617676,151.489212 
	C115.757324,153.846680 117.696838,155.511932 117.725052,157.921539 
	C117.746292,159.735672 119.909607,158.506714 121.058334,159.531891 
	C121.393532,159.627945 121.303871,159.886322 121.319962,159.750519 
	C121.180901,160.030960 121.293892,160.368362 121.903976,160.778992 
	C122.171036,160.919846 122.080742,160.921219 122.098412,160.879669 
	C124.107079,166.267441 128.051300,171.054535 127.707565,177.648941 
	C127.883186,177.988602 128.020630,178.410370 128.036072,178.631622 
	C128.159088,179.067413 128.266663,179.281967 128.210907,179.817368 
	C128.047562,180.138199 128.027893,180.579132 127.984039,180.795410 
	C127.686089,182.646164 126.342072,183.908066 126.233398,185.964905 
	C126.107040,186.294403 126.140350,186.672226 126.045364,186.836365 
	C125.155365,187.756470 124.713081,188.717804 124.463287,190.033661 
	C124.566223,190.336044 124.505585,190.393188 124.529800,190.427094 
	C123.432045,190.060104 123.590805,191.015503 123.218536,191.889069 
	C122.574211,192.762131 122.086380,193.320419 121.329391,193.976257 
	C119.913597,194.071487 118.847931,194.359482 117.588570,195.160736 
	C117.124847,195.502472 116.942932,195.646912 116.514496,196.047028 
	C116.077553,196.450439 115.887131,196.598175 115.362190,196.892944 
	C111.517143,199.216278 107.961708,199.113159 104.208527,197.563263 
	C99.857597,195.766510 95.070442,194.938721 91.218727,191.300018 
	C87.447006,190.158005 85.945061,185.347961 81.169891,186.210999 
	C80.778893,186.296875 80.830338,186.285034 80.808304,186.282013 
	C78.791878,183.496567 76.481880,181.050308 73.117828,179.274475 
	C72.794762,179.166336 72.937202,179.064011 72.886047,179.135239 
	C69.774506,172.535263 63.734421,167.968277 60.023666,161.390045 
	C59.697906,161.253799 59.717091,161.058151 59.729160,161.155701 
	C59.380440,158.935257 58.942551,156.645020 57.154079,154.508301 
	C56.309673,153.044434 56.508999,151.524246 55.246040,150.215057 
	C55.015121,149.962418 54.819073,149.769073 54.870125,149.641205 
	C54.277039,146.576447 54.137302,143.523010 52.767906,140.327942 
	C52.553192,137.418030 52.234520,134.937576 51.560112,132.081085 
	C51.507301,128.542206 51.515575,125.424217 51.531845,121.884842 
	C52.390217,117.392815 52.616184,113.222969 53.543133,108.749603 
	C54.856277,105.045387 55.926044,101.685265 56.811619,97.840881 
	C56.921387,97.447815 56.818035,97.211136 56.916237,97.127289 
	C58.015903,96.089615 58.461567,94.880730 58.817196,93.276001 
	C59.012592,93.011139 59.000000,93.000000 59.005913,93.006134 
	C59.807590,92.309341 60.226685,91.370094 60.805031,90.166595 
	C62.997097,84.178299 66.836334,79.656212 71.033875,75.045578 
z"/>
<path fill="#DABC36" opacity="1.000000" stroke="none" 
	d="
M198.777893,141.881805 
	C198.485199,142.224808 198.443558,142.398407 198.339722,142.694763 
	C197.913666,144.559082 196.975830,146.153503 196.967728,148.324081 
	C196.781891,149.966461 196.086060,151.144241 195.966309,152.798996 
	C195.631516,153.938004 195.317932,154.750107 194.792252,155.812103 
	C193.699722,157.074020 193.894333,158.829758 191.990234,159.203308 
	C191.675735,159.055435 191.339996,159.302216 191.150970,159.389832 
	C188.867828,159.500717 188.323807,157.776733 187.286346,156.095032 
	C187.042526,155.487732 186.886612,155.242828 186.415253,154.987274 
	C185.156586,154.434921 184.901138,153.367065 184.196213,152.249176 
	C183.996887,152.012070 184.001221,151.999390 183.994644,151.999847 
	C183.777924,151.767151 183.560928,151.540558 183.180161,151.145111 
	C183.023270,150.969650 182.999420,151.000000 183.014984,150.988693 
	C182.769073,150.770248 182.536087,150.534897 182.191040,150.066040 
	C182.019440,149.533035 181.867813,149.276672 181.381790,149.008240 
	C177.332367,145.025650 172.618317,141.889221 170.202347,136.301453 
	C169.974487,136.043533 170.000931,136.000702 169.978973,136.012970 
	C162.056137,129.779282 155.903412,121.881691 149.293549,113.968658 
	C149.162842,113.644798 149.093185,113.277039 148.972229,113.134232 
	C148.723953,112.810387 148.596634,112.629356 148.239685,112.208603 
	C147.950378,111.631447 147.780090,111.364632 147.276093,111.073296 
	C146.457687,110.453842 145.913559,109.879120 145.248215,109.024231 
	C144.857697,108.301643 144.606979,107.840942 144.168304,107.193069 
	C140.553497,102.424126 137.103867,97.852776 136.989685,91.378632 
	C137.028473,89.939156 137.076050,88.871895 137.073303,87.406197 
	C137.478836,77.740776 142.582962,71.655502 150.715363,67.224091 
	C151.013245,67.009018 151.000000,66.999390 151.003113,67.006760 
	C151.229553,66.782684 151.456848,66.555176 151.878601,66.183617 
	C152.069122,66.035622 152.003784,66.010590 152.016327,66.043243 
	C152.418091,65.581276 153.010544,65.532295 153.765533,65.183365 
	C153.975342,64.987007 153.991592,64.999962 153.990997,64.988693 
	C154.154480,64.972321 154.370071,65.033905 154.475311,64.952614 
	C161.384018,59.616325 167.025406,62.226849 172.508621,67.921051 
	C175.938065,71.204720 179.063797,74.331703 182.368149,77.714066 
	C182.925095,78.121742 183.270676,78.328751 183.820068,78.781479 
	C184.056595,78.972549 184.000275,78.997650 184.019226,78.973312 
	C184.672958,80.052109 185.466980,81.085365 185.780655,82.658463 
	C189.239700,84.798630 189.878647,88.531845 191.952728,91.653336 
	C193.001312,93.266518 193.504227,94.784576 194.433960,96.454765 
	C194.728317,96.880493 194.822281,97.033318 194.974060,97.448944 
	C195.616028,98.810501 195.468338,100.169388 196.464691,101.431900 
	C197.444656,104.476288 198.228638,107.280045 199.029709,110.421249 
	C199.009094,111.553192 198.998627,112.348206 199.008713,113.543633 
	C199.752380,119.566055 199.128418,125.223053 199.488922,131.242310 
	C199.644623,132.124237 199.742279,132.623047 199.837875,133.491776 
	C199.831665,134.096756 199.810242,134.335190 199.714081,134.918213 
	C198.959457,136.746033 198.787491,138.267593 199.373383,140.164307 
	C199.473618,140.945511 199.346542,141.356934 198.777893,141.881805 
z"/>
<path fill="#2D2E55" opacity="1.000000" stroke="none" 
	d="
M93.829430,83.386246 
	C93.583794,79.464066 94.353951,77.048698 98.613983,76.554367 
	C102.502762,76.103119 105.602562,73.395599 108.113014,70.745132 
	C110.908905,67.793282 113.787437,67.313255 117.720566,68.043274 
	C113.528778,70.788940 108.910255,73.442596 104.393700,76.259720 
	C100.871796,78.456436 97.671425,81.093887 94.485725,84.261620 
	C94.015114,84.205276 93.850060,83.987534 93.829430,83.386246 
z"/>
<path fill="#3D3D5E" opacity="1.000000" stroke="none" 
	d="
M90.996040,191.306519 
	C94.760674,192.674225 98.479797,194.406998 102.392586,195.783951 
	C106.743179,197.314972 110.872162,198.238571 115.570419,196.032776 
	C116.331360,196.092575 116.629471,196.280106 117.006378,196.827820 
	C116.978676,198.354431 114.004288,197.834427 115.508659,200.132431 
	C116.061752,200.658798 115.959015,201.036407 115.267998,201.183502 
	C113.151237,200.775024 111.333702,200.530945 109.241905,200.678192 
	C107.953758,198.956985 105.792641,199.429382 103.707382,198.864532 
	C99.382362,197.021851 95.426605,195.213470 91.233505,193.137238 
	C90.995102,192.452637 90.994057,192.035873 90.996040,191.306519 
z"/>
<path fill="#2D2E55" opacity="1.000000" stroke="none" 
	d="
M120.457230,67.089279 
	C122.619812,61.970570 128.021851,62.109371 132.450150,60.886490 
	C137.012115,59.626698 141.399796,57.907761 145.980377,56.276703 
	C147.715607,55.229282 149.343811,54.754997 150.192474,57.347626 
	C140.297668,60.854782 130.572479,63.955940 120.457230,67.089279 
z"/>
<path fill="#F7F5E9" opacity="1.000000" stroke="none" 
	d="
M149.115387,114.035660 
	C156.026108,120.891823 162.889374,128.138840 169.854828,135.705536 
	C166.357239,136.315277 164.869705,133.297043 162.880402,131.281006 
	C158.615707,126.959023 154.603546,122.388649 150.452271,117.953423 
	C149.497787,116.933640 148.878021,115.858665 149.115387,114.035660 
z"/>
<path fill="#F7F5E9" opacity="1.000000" stroke="none" 
	d="
M150.637222,67.003113 
	C148.561691,69.210869 145.981720,71.287735 143.688629,73.643806 
	C140.232697,77.194641 138.422302,81.635986 137.251648,86.730522 
	C136.064148,86.371483 135.882477,85.372490 136.040298,84.386292 
	C136.981339,78.505669 141.709274,68.512230 150.637222,67.003113 
z"/>
<path fill="#35355C" opacity="1.000000" stroke="none" 
	d="
M93.626274,83.039726 
	C94.005638,83.239799 94.037437,83.476891 94.124695,84.068504 
	C90.417671,89.523613 86.610336,94.602356 85.884880,101.609604 
	C82.841827,100.451012 84.550186,97.822479 85.158554,96.345062 
	C87.136070,91.542648 87.897766,85.834938 93.626274,83.039726 
z"/>
<path fill="#F7F5E9" opacity="1.000000" stroke="none" 
	d="
M136.701813,91.271210 
	C138.583038,96.434502 140.799622,101.581131 143.980240,106.646065 
	C139.568390,104.680328 135.713516,96.789734 136.701813,91.271210 
z"/>
<path fill="#2D2E55" opacity="1.000000" stroke="none" 
	d="
M115.354050,151.018265 
	C110.378181,151.667130 108.923393,149.994095 108.039169,142.309235 
	C110.441093,144.848511 112.826714,147.789886 115.354050,151.018265 
z"/>
<path fill="#F7F5E9" opacity="1.000000" stroke="none" 
	d="
M169.979614,136.410629 
	C173.647949,140.116928 177.321426,144.190308 181.081436,148.594284 
	C175.770462,146.413086 171.782944,142.603195 169.979614,136.410629 
z"/>
<path fill="#2D2E55" opacity="1.000000" stroke="none" 
	d="
M127.955948,177.638153 
	C125.941467,172.533112 123.999748,167.077621 122.087051,161.230133 
	C125.788017,165.709885 128.818146,170.812347 127.955948,177.638153 
z"/>
<path fill="#35355C" opacity="1.000000" stroke="none" 
	d="
M103.336212,135.878540 
	C102.632507,136.690399 101.208176,137.370285 100.840012,136.490601 
	C99.435051,133.133621 95.528198,131.380280 95.247147,127.053368 
	C97.938538,129.657013 100.560043,132.633255 103.336212,135.878540 
z"/>
<path fill="#2D2E55" opacity="1.000000" stroke="none" 
	d="
M121.279388,159.310303 
	C114.032288,161.579605 117.050735,154.972305 115.500244,151.907196 
	C117.502617,154.024765 119.333939,156.508713 121.279388,159.310303 
z"/>
<path fill="#1C1D3A" opacity="1.000000" stroke="none" 
	d="
M150.435791,57.751358 
	C149.715012,55.724442 148.116623,56.054298 146.390015,55.955742 
	C145.698898,55.473598 145.366608,54.998264 145.035492,54.216694 
	C147.444489,54.524918 149.852295,55.139374 152.635895,55.770519 
	C153.791153,56.130737 154.610382,56.726948 153.998428,57.535007 
	C153.184525,58.609734 151.909683,57.583862 150.435791,57.751358 
z"/>
<path fill="#35355C" opacity="1.000000" stroke="none" 
	d="
M87.741455,113.631638 
	C83.320671,112.220055 84.234123,108.895775 85.570549,105.270340 
	C86.438194,107.768730 87.073837,110.513489 87.741455,113.631638 
z"/>
<path fill="#35355C" opacity="1.000000" stroke="none" 
	d="
M108.020256,141.621735 
	C104.695831,142.210983 103.434914,140.349854 103.637787,136.903259 
	C105.213005,138.144104 106.576706,139.724228 108.020256,141.621735 
z"/>
<path fill="#272841" opacity="1.000000" stroke="none" 
	d="
M131.433945,201.028229 
	C127.733727,203.134415 123.333542,201.489563 118.613739,201.843536 
	C117.998161,201.692398 117.834267,201.576096 117.838509,201.209579 
	C122.329918,200.976593 126.653183,200.993805 131.433945,201.028229 
z"/>
<path fill="#F7F5E9" opacity="1.000000" stroke="none" 
	d="
M187.064316,156.178818 
	C188.919342,156.088318 189.282166,157.993423 190.747574,159.197662 
	C190.963882,159.830093 190.965790,160.182739 190.947021,160.801575 
	C188.482239,160.553665 187.046249,159.170395 187.064316,156.178818 
z"/>
<path fill="#2D2E55" opacity="1.000000" stroke="none" 
	d="
M116.805878,195.251465 
	C117.404633,192.612030 118.871490,192.725052 120.840332,193.797180 
	C120.461563,195.458649 119.028969,195.869736 117.643471,196.830780 
	C117.175217,196.813202 117.035034,196.683716 116.756111,196.303268 
	C116.621620,195.861008 116.625877,195.669693 116.805878,195.251465 
z"/>
<path fill="#2D2E55" opacity="1.000000" stroke="none" 
	d="
M126.409409,186.155518 
	C126.047508,184.546707 125.591125,182.703094 127.617302,181.196564 
	C129.221207,183.094925 126.868759,184.286346 126.409409,186.155518 
z"/>
<path fill="#939393" opacity="1.000000" stroke="none" 
	d="
M136.778015,201.518127 
	C135.513733,201.782410 134.354950,201.697540 133.017059,201.300079 
	C134.214615,200.421051 135.636353,198.849380 136.778015,201.518127 
z"/>
<path fill="#343455" opacity="1.000000" stroke="none" 
	d="
M93.117653,123.589783 
	C90.737648,123.798714 90.399254,121.993477 90.193657,119.715805 
	C91.178162,120.624184 92.117188,121.935593 93.117653,123.589783 
z"/>
<path fill="#2D2E55" opacity="1.000000" stroke="none" 
	d="
M124.769287,190.090347 
	C124.016922,189.113785 123.617203,187.922134 125.585419,187.070557 
	C126.501625,188.250229 125.475754,188.957611 124.769287,190.090347 
z"/>
<path fill="#EDE9DB" opacity="1.000000" stroke="none" 
	d="
M143.063660,201.031418 
	C142.182861,200.979202 141.114319,201.339539 140.479950,200.379745 
	C140.355713,200.191757 140.674683,199.411377 140.932083,199.323715 
	C141.916702,198.988464 142.291611,199.875854 142.928192,200.781982 
	C143.066101,201.093719 143.021164,201.009613 143.063660,201.031418 
z"/>
<path fill="#939393" opacity="1.000000" stroke="none" 
	d="
M117.844940,200.680054 
	C118.006645,200.959366 118.168457,201.368591 118.165253,201.588654 
	C117.277100,201.686478 116.392151,201.564240 115.237984,201.230560 
	C115.140305,200.811249 115.344498,200.643051 115.705063,200.359467 
	C116.446930,200.269852 117.065086,200.335297 117.844940,200.680054 
z"/>
<path fill="#F7F5E9" opacity="1.000000" stroke="none" 
	d="
M183.996277,152.377411 
	C185.095871,152.398880 185.566208,153.355942 186.134674,154.598938 
	C184.666824,155.006302 184.007797,154.204742 183.996277,152.377411 
z"/>
<path fill="#F7F5E9" opacity="1.000000" stroke="none" 
	d="
M145.101929,109.111969 
	C145.721207,109.294708 146.333969,109.827065 146.999893,110.668793 
	C146.042664,110.934532 145.239319,110.623680 145.101929,109.111969 
z"/>
<path fill="#343455" opacity="1.000000" stroke="none" 
	d="
M89.058846,116.667343 
	C88.735016,116.488800 88.397179,116.004669 88.054344,115.206711 
	C88.381172,115.382523 88.713005,115.872139 89.058846,116.667343 
z"/>
<path fill="#2D2E55" opacity="1.000000" stroke="none" 
	d="
M123.340469,192.088684 
	C123.066994,191.495880 123.120781,190.809738 124.204803,190.444427 
	C124.242310,190.965164 123.930603,191.469345 123.340469,192.088684 
z"/>
<path fill="#343455" opacity="1.000000" stroke="none" 
	d="
M90.067490,118.696518 
	C89.747154,118.516830 89.404579,118.033875 89.055557,117.236153 
	C89.381157,117.412010 89.713196,117.902626 90.067490,118.696518 
z"/>
<path fill="#2D2E55" opacity="1.000000" stroke="none" 
	d="
M118.354843,68.080414 
	C118.515221,67.766899 118.996628,67.418335 119.796234,67.070847 
	C119.901382,67.790184 119.390915,68.068924 118.354843,68.080414 
z"/>
<path fill="#343455" opacity="1.000000" stroke="none" 
	d="
M95.284454,126.479904 
	C94.664116,126.706161 94.231918,126.337151 94.026611,125.344208 
	C94.395088,125.422218 94.799309,125.812874 95.284454,126.479904 
z"/>
<path fill="#F7F5E9" opacity="1.000000" stroke="none" 
	d="
M153.671936,64.999680 
	C153.525192,65.335533 153.075027,65.684059 152.326859,66.054245 
	C152.475418,65.721382 152.921967,65.366859 153.671936,64.999680 
z"/>
<path fill="#EDE9DB" opacity="1.000000" stroke="none" 
	d="
M144.621368,199.650482 
	C144.865936,198.999588 145.222519,198.991104 145.546600,199.530182 
	C145.284607,199.631439 145.022598,199.732681 144.621368,199.650482 
z"/>
<path fill="#2D2E55" opacity="1.000000" stroke="none" 
	d="
M122.125122,160.647339 
	C121.889297,160.679260 121.607559,160.438675 121.330933,159.906403 
	C121.583771,159.868088 121.831490,160.121460 122.125122,160.647339 
z"/>
<path fill="#2D2E55" opacity="1.000000" stroke="none" 
	d="
M117.216484,197.021393 
	C116.866737,196.861343 116.552917,196.678986 116.095062,196.263016 
	C115.951035,196.029404 115.996948,195.986694 116.020966,195.966553 
	C116.198853,195.851929 116.352722,195.757446 116.733315,195.811111 
	C117.040878,196.115143 117.121704,196.271057 117.258972,196.684814 
	C117.315399,196.942673 117.252403,196.999084 117.216484,197.021393 
z"/>
<path fill="#F7F5E9" opacity="1.000000" stroke="none" 
	d="
M148.082108,112.189095 
	C148.380615,111.985168 148.643448,112.161751 148.824890,112.745026 
	C148.545792,112.884941 148.313431,112.690895 148.082108,112.189095 
z"/>
<path fill="#F7F5E9" opacity="1.000000" stroke="none" 
	d="
M151.827820,66.118439 
	C151.884842,66.319084 151.700577,66.602554 151.261261,66.950073 
	C151.199646,66.743172 151.393082,66.472214 151.827820,66.118439 
z"/>
<path fill="#F6F5F8" opacity="1.000000" stroke="none" 
	d="
M170.451080,187.434464 
	C170.521484,187.388947 170.543823,187.574142 170.543823,187.574142 
	C170.543823,187.574142 170.380661,187.479980 170.451080,187.434464 
z"/>
<path fill="#2D2E55" opacity="1.000000" stroke="none" 
	d="
M128.300323,180.030731 
	C128.037155,179.924042 128.026749,179.709869 128.033936,179.174286 
	C128.457016,179.098007 129.173523,179.197388 128.300323,180.030731 
z"/>
<path fill="#F7F5E9" opacity="1.000000" stroke="none" 
	d="
M182.124756,150.114380 
	C182.329971,150.062668 182.609451,150.264603 182.959732,150.721954 
	C182.753357,150.774277 182.476181,150.571152 182.124756,150.114380 
z"/>
<path fill="#F7F5E9" opacity="1.000000" stroke="none" 
	d="
M183.110580,151.201569 
	C183.306641,151.145035 183.589996,151.320435 183.930725,151.748077 
	C183.651443,151.913452 183.388046,151.724503 183.110580,151.201569 
z"/>
<path fill="#14112B" opacity="1.000000" stroke="none" 
	d="
M131.533112,51.114033 
	C128.275604,52.805283 124.445877,51.995037 120.335228,51.444729 
	C123.711563,51.135143 127.393661,51.092911 131.533112,51.114033 
z"/>
<path fill="#272841" opacity="1.000000" stroke="none" 
	d="
M102.556473,54.822449 
	C102.175636,57.247021 100.170570,57.029034 97.813049,56.942036 
	C98.723969,55.623875 100.478424,55.305897 102.556473,54.822449 
z"/>
<path fill="#14112B" opacity="1.000000" stroke="none" 
	d="
M140.853745,52.622429 
	C138.864441,52.714901 136.466568,53.787315 134.192871,51.785484 
	C136.204453,51.705513 138.398407,52.007660 140.853745,52.622429 
z"/>
<path fill="#14112B" opacity="1.000000" stroke="none" 
	d="
M116.969467,51.630608 
	C116.097733,53.272915 114.394691,53.229828 112.307312,52.457909 
	C113.521431,52.017612 115.013428,51.819977 116.969467,51.630608 
z"/>
<path fill="#1C1D3A" opacity="1.000000" stroke="none" 
	d="
M81.449570,65.757355 
	C82.062592,67.364464 81.183777,67.981468 79.227402,67.937508 
	C79.611336,67.229836 80.382759,66.548599 81.449570,65.757355 
z"/>
<path fill="#1C1D3A" opacity="1.000000" stroke="none" 
	d="
M144.901642,53.637306 
	C143.829880,53.930614 142.502640,54.362278 141.216217,53.056313 
	C142.270187,52.912056 143.492828,53.113586 144.901642,53.637306 
z"/>
<path fill="#272841" opacity="1.000000" stroke="none" 
	d="
M96.712288,57.053921 
	C96.803345,57.955360 96.796249,59.125858 95.127518,58.171215 
	C95.441681,57.646667 95.924721,57.353951 96.712288,57.053921 
z"/>
<path fill="#1C1D3A" opacity="1.000000" stroke="none" 
	d="
M84.658730,63.948715 
	C84.470375,64.240356 83.966270,64.584724 83.133255,64.902451 
	C83.317223,64.584351 83.830101,64.292892 84.658730,63.948715 
z"/>
<path fill="#1C1D3A" opacity="1.000000" stroke="none" 
	d="
M78.680481,67.916832 
	C78.738792,68.136925 78.524292,68.447083 78.024879,68.827377 
	C77.962540,68.600639 78.185104,68.303772 78.680481,67.916832 
z"/>
<path fill="#1C1D3A" opacity="1.000000" stroke="none" 
	d="
M82.649567,64.871658 
	C82.704872,65.099648 82.484062,65.417374 81.962509,65.778656 
	C81.899002,65.535278 82.136223,65.248344 82.649567,64.871658 
z"/>
<path fill="#272841" opacity="1.000000" stroke="none" 
	d="
M103.727089,54.227459 
	C103.800926,54.518753 103.559105,54.705563 103.024200,54.857113 
	C103.021835,54.671646 103.248604,54.438686 103.727089,54.227459 
z"/>
<path fill="#6B612E" opacity="1.000000" stroke="none" 
	d="
M198.272461,113.044250 
	C198.306641,112.166130 198.472351,111.651978 198.842438,110.948257 
	C200.454102,111.868057 199.768570,113.600845 200.681137,114.976440 
	C199.602127,116.687080 201.492096,118.422455 200.942810,120.578163 
	C200.625275,121.103455 200.378754,121.186844 199.785797,121.090927 
	C197.637131,118.611542 198.978668,115.877678 198.272461,113.044250 
z"/>
<path fill="#6B612E" opacity="1.000000" stroke="none" 
	d="
M194.615021,96.416962 
	C192.412201,96.263107 192.701630,94.150818 191.998871,92.352760 
	C193.926010,92.708878 194.058746,94.535210 194.615021,96.416962 
z"/>
<path fill="#6B612E" opacity="1.000000" stroke="none" 
	d="
M196.662079,101.357971 
	C194.625153,101.395630 194.892380,99.808006 194.920563,98.065788 
	C196.384583,98.426208 196.132584,99.926521 196.662079,101.357971 
z"/>
<path fill="#6B612E" opacity="1.000000" stroke="none" 
	d="
M185.998016,82.556206 
	C185.259460,81.794319 184.520889,80.696472 183.910248,79.273804 
	C185.442108,79.589676 185.877289,80.810768 185.998016,82.556206 
z"/>
<path fill="#6B612E" opacity="1.000000" stroke="none" 
	d="
M183.965103,78.630943 
	C183.645508,78.857590 183.234421,78.742630 182.685043,78.298553 
	C182.989044,78.076065 183.431320,78.182701 183.965103,78.630943 
z"/>
<path fill="#272841" opacity="1.000000" stroke="none" 
	d="
M56.643936,97.664360 
	C57.379684,101.102806 56.393913,104.424301 54.303661,107.782394 
	C53.879818,108.180702 53.739235,108.352760 53.387383,108.267059 
	C53.663185,106.184814 54.150257,104.360336 54.302444,102.258446 
	C55.117676,102.489792 54.834644,101.433983 55.110962,100.622925 
	C55.547775,99.484978 55.957130,98.682945 56.643936,97.664360 
z"/>
<path fill="#272841" opacity="1.000000" stroke="none" 
	d="
M58.710926,93.159203 
	C58.840664,94.393654 59.567554,96.071266 57.373825,96.975708 
	C57.479378,95.798042 57.944321,94.552658 58.710926,93.159203 
z"/>
<path fill="#272841" opacity="1.000000" stroke="none" 
	d="
M60.671776,90.030518 
	C60.940784,91.062813 61.226665,92.354202 59.357353,92.940063 
	C59.066525,91.870201 59.530403,90.922318 60.671776,90.030518 
z"/>
<path fill="#343455" opacity="1.000000" stroke="none" 
	d="
M59.778694,161.587769 
	C60.184059,161.248993 61.015644,161.076614 61.106358,161.263626 
	C64.176437,167.592102 71.520340,170.978821 72.883896,178.818588 
	C72.079620,178.545013 71.324341,177.883560 70.289360,177.099548 
	C69.263542,176.013031 68.517426,175.049072 67.499855,173.939880 
	C66.528076,172.780746 65.827751,171.766830 64.920265,170.522095 
	C64.542015,169.993164 64.370926,169.695084 64.024643,169.205109 
	C62.519455,166.649399 61.189465,164.285568 59.778694,161.587769 
z"/>
<path fill="#272841" opacity="1.000000" stroke="none" 
	d="
M52.841003,139.724060 
	C55.703518,142.402954 54.881855,145.596878 54.943584,149.052017 
	C53.651588,147.620224 53.320702,145.428223 52.799095,142.918091 
	C52.477688,141.940903 52.285801,141.301331 52.144009,140.325409 
	C52.335899,139.817429 52.477692,139.645798 52.841003,139.724060 
z"/>
<path fill="#343455" opacity="1.000000" stroke="none" 
	d="
M56.824856,153.727722 
	C60.382793,155.058060 60.013451,157.798325 59.823399,160.837585 
	C58.605598,159.056351 57.469967,156.859482 56.279137,154.326874 
	C56.355667,153.819824 56.487404,153.648499 56.824856,153.727722 
z"/>
<path fill="#272841" opacity="1.000000" stroke="none" 
	d="
M57.031227,153.604187 
	C57.030575,153.978256 56.627201,153.983582 56.425568,153.987366 
	C55.818718,152.886307 55.413509,151.781479 55.011711,150.319519 
	C57.151012,150.148331 56.987705,151.753250 57.031227,153.604187 
z"/>
<path fill="#1C1D3A" opacity="1.000000" stroke="none" 
	d="
M53.077568,108.406540 
	C53.176109,108.009293 53.598019,108.006058 53.809212,108.007355 
	C53.537495,112.150024 53.054585,116.291412 52.291447,120.718582 
	C51.872116,121.177742 51.733009,121.351128 51.382633,121.266556 
	C51.175865,116.851753 52.094624,112.830315 53.077568,108.406540 
z"/>
<path fill="#14112B" opacity="1.000000" stroke="none" 
	d="
M51.099152,121.461182 
	C51.171360,121.008598 51.591160,121.004044 51.801193,121.004204 
	C52.009430,124.360657 52.007637,127.716949 51.990280,131.530136 
	C51.843391,132.159470 51.712070,132.331924 51.381607,132.247360 
	C51.130619,128.631485 51.078781,125.272621 51.099152,121.461182 
z"/>
<path fill="#1C1D3A" opacity="1.000000" stroke="none" 
	d="
M51.111023,132.372696 
	C51.182457,131.990356 51.578857,131.989990 51.776787,131.988510 
	C53.403458,134.210358 52.939552,136.717575 53.054977,139.556488 
	C53.062523,139.973953 52.628448,139.988861 52.411278,139.988953 
	C52.122940,139.539703 52.051773,139.090347 51.879204,138.313965 
	C51.531731,136.242966 51.285660,134.499008 51.111023,132.372696 
z"/>
<path fill="#6B612E" opacity="1.000000" stroke="none" 
	d="
M196.208893,152.941620 
	C194.498505,151.958237 196.068970,150.813675 196.013123,149.333008 
	C196.276688,148.588715 196.595032,148.261337 197.348480,148.114868 
	C197.535004,148.944839 197.382721,149.687546 197.232803,150.719879 
	C196.981018,151.592133 196.726852,152.174728 196.208893,152.941620 
z"/>
<path fill="#6B612E" opacity="1.000000" stroke="none" 
	d="
M191.836884,159.362244 
	C192.460938,158.150681 193.246155,157.245926 194.305756,156.201599 
	C194.290375,157.673065 194.985031,159.988831 191.836884,159.362244 
z"/>
<path fill="#CAB663" opacity="1.000000" stroke="none" 
	d="
M198.096848,113.176270 
	C198.685730,115.228249 199.230530,117.776207 199.926300,120.685158 
	C201.008026,124.383728 200.188141,127.800568 200.702148,131.554962 
	C200.905609,132.120193 200.942322,132.295059 200.978912,132.737915 
	C200.619446,133.348846 200.192734,133.494736 199.415192,133.227448 
	C196.797745,128.529922 198.503113,123.724121 198.041046,119.090088 
	C197.862793,117.302307 198.038376,115.479240 198.096848,113.176270 
z"/>
<path fill="#393009" opacity="1.000000" stroke="none" 
	d="
M200.930862,131.492676 
	C199.067276,128.738617 200.413483,125.266533 200.051392,121.493393 
	C200.077271,121.046150 200.473404,120.998558 200.672592,121.009315 
	C200.912125,124.360054 200.952469,127.700027 200.930862,131.492676 
z"/>
<path fill="#939393" opacity="1.000000" stroke="none" 
	d="
M199.117676,133.360016 
	C199.541748,133.005905 199.951767,133.000549 200.670288,133.000565 
	C200.982468,134.039795 200.986160,135.073669 200.961823,136.494934 
	C200.933762,136.882309 200.570496,137.014145 200.385727,137.070679 
	C199.539597,136.892197 199.275223,136.358673 199.158722,135.413223 
	C199.149063,134.638031 199.126343,134.173401 199.117676,133.360016 
z"/>
<path fill="#CAB663" opacity="1.000000" stroke="none" 
	d="
M197.828796,147.865463 
	C197.284256,148.417007 196.881210,148.631897 196.266357,148.928223 
	C195.949127,146.908173 196.706741,145.050720 198.000946,143.041260 
	C199.677322,144.504303 198.129272,145.964920 197.828796,147.865463 
z"/>
<path fill="#6B612E" opacity="1.000000" stroke="none" 
	d="
M199.112396,135.093842 
	C199.447754,135.590256 199.723724,136.077850 200.100327,136.846329 
	C199.905975,138.718948 200.454926,140.467163 198.900116,141.971741 
	C198.559036,141.578522 198.633499,141.115997 198.672211,140.302155 
	C198.443359,138.541290 198.505600,137.127777 198.783630,135.346603 
	C198.996536,134.979004 199.052979,135.085037 199.112396,135.093842 
z"/>
<path fill="#343455" opacity="1.000000" stroke="none" 
	d="
M72.911041,179.454254 
	C77.294075,179.004959 79.088135,182.268356 80.828674,185.912415 
	C80.431267,186.163742 80.076271,186.048523 79.447678,185.870209 
	C78.663872,185.251923 78.153671,184.696701 77.368698,184.053925 
	C76.740303,183.550903 76.386673,183.135437 75.821121,182.541077 
	C74.748573,181.488846 73.887939,180.615509 72.911041,179.454254 
z"/>
<path fill="#3D3D5E" opacity="1.000000" stroke="none" 
	d="
M116.970993,195.725708 
	C116.960045,195.959244 116.501755,195.961517 116.273369,195.953949 
	C116.130722,195.639847 116.304390,195.395905 116.773811,195.119553 
	C116.981628,195.024551 116.981934,195.492157 116.970993,195.725708 
z"/>
<path fill="#CAB663" opacity="1.000000" stroke="none" 
	d="
M198.732483,135.198456 
	C198.925552,136.362534 198.854584,137.746078 198.710052,139.540222 
	C197.657608,138.474075 197.795990,136.955887 198.732483,135.198456 
z"/>
</svg>