<?xml version="1.0" standalone="no"?>
<!DOCTYPE svg PUBLIC "-//W3C//DTD SVG 1.0//EN" "http://www.w3.org/TR/2001/REC-SVG-20010904/DTD/svg10.dtd">
<svg xmlns="http://www.w3.org/2000/svg" xmlns:xlink="http://www.w3.org/1999/xlink" id="body_1" width="2048" height="1536">

<g transform="matrix(1.4222224 0 0 1.4222224 -0 540.44446)">
    <path d="M0 288L80 256C 160 224 320 160 480 165.3C 640 171 800 245 960 277.3C 1120 309 1280 299 1360 293.3L1360 293.3L1440 288L1440 0L1360 0C 1280 0 1120 0 960 0C 800 0 640 0 480 0C 320 0 160 0 80 0L80 0L0 0L0 288z" stroke="none" fill="#0099FF" fill-rule="nonzero" />
</g>
</svg>